<svg width="1260" height="588" viewBox="0 0 1260 588" fill="none" xmlns="http://www.w3.org/2000/svg">
<path fill-rule="evenodd" clip-rule="evenodd" d="M252.218 202.526C271.618 200.226 290.518 197.426 309.518 196.126C320.118 195.426 324.818 204.526 320.418 214.526C316.018 224.426 317.818 231.426 327.218 237.126C340.118 244.926 354.418 246.626 369.118 244.126C375.918 243.026 378.318 237.926 377.618 231.626C376.918 225.226 375.618 218.726 374.318 212.326C373.118 206.326 374.818 202.626 381.218 202.226C396.318 201.226 411.418 200.326 428.118 199.326C426.318 206.826 424.318 212.326 423.818 217.926C423.118 225.726 422.118 233.926 423.818 241.426C426.018 251.426 434.718 253.626 442.418 246.926C448.018 242.026 452.218 242.926 457.718 247.226C468.318 255.426 473.418 265.426 471.118 278.926C469.318 289.126 465.118 293.026 454.518 293.226C449.218 293.226 443.818 292.526 438.418 292.026C428.118 291.126 422.718 293.926 420.118 304.026C417.918 312.326 417.518 321.026 416.518 329.626C416.118 332.726 416.418 336.026 416.418 338.726C390.818 345.226 366.318 352.126 341.518 357.526C321.418 361.926 301.418 357.626 281.718 353.626C274.818 352.326 266.018 352.226 261.918 347.926C258.318 344.226 260.418 335.326 259.618 328.826C258.818 322.826 258.118 316.626 256.218 310.926C253.118 301.126 247.118 297.526 236.918 298.826C232.318 299.526 227.818 300.726 223.218 301.726C218.318 302.826 214.318 301.626 212.018 297.026C206.918 286.926 204.118 276.426 206.218 265.126C207.818 256.626 212.318 253.326 221.018 253.426C226.818 253.526 232.718 254.026 238.518 253.826C254.218 253.126 261.218 244.726 258.618 229.426C257.218 220.926 254.618 212.726 252.218 202.526V202.526Z" fill="#339966"/>
<path fill-rule="evenodd" clip-rule="evenodd" d="M132.518 369.726C146.818 360.126 159.418 350.526 175.418 348.026C179.218 347.426 184.018 349.126 187.218 351.226C188.318 352.026 186.118 357.726 185.318 361.126C183.918 367.326 181.218 373.626 181.418 379.826C181.718 391.026 190.118 398.826 201.018 400.326C212.118 401.926 222.518 396.226 226.318 385.826C228.018 381.126 228.318 375.726 228.618 370.726C228.918 367.426 228.118 364.226 227.818 360.926C226.718 348.926 227.918 348.526 239.318 351.626C258.718 356.926 278.118 362.126 297.818 366.026C318.918 370.226 340.118 370.026 361.918 362.026C367.318 383.826 373.418 404.726 366.218 426.526C363.218 435.526 359.318 436.226 351.418 430.826C347.418 428.026 343.318 425.226 338.918 423.226C332.018 420.226 325.918 421.726 322.718 428.426C314.318 445.726 311.518 463.726 320.718 481.726C326.418 492.926 333.318 495.026 345.018 490.626C362.418 483.926 364.118 484.926 367.018 503.426C367.918 508.926 367.818 514.726 369.018 520.126C370.918 529.026 367.418 534.526 359.418 537.626C351.218 540.626 343.118 544.626 334.518 546.026C324.018 547.826 314.718 544.126 306.418 536.526C268.818 501.726 230.318 467.926 193.118 432.726C172.218 412.926 153.118 391.326 132.518 369.726V369.726Z" fill="#006699"/>
<path fill-rule="evenodd" clip-rule="evenodd" d="M124.918 362.326C84.4178 313.726 58.2178 259.326 59.0178 192.826C67.9178 197.026 75.2178 201.226 83.1178 204.026C94.1178 207.826 105.418 210.826 116.618 213.726C120.218 214.626 124.118 214.226 127.818 213.826C137.918 212.626 142.018 206.926 140.718 196.826C139.918 191.326 138.618 185.726 138.918 180.226C139.418 170.526 144.718 166.626 154.318 167.926C172.318 170.226 173.918 172.926 167.418 190.026C166.218 193.226 164.918 196.526 163.818 199.926C159.818 212.626 163.918 217.826 177.118 216.326C185.018 215.426 192.818 214.026 200.718 212.726C212.918 210.626 225.118 208.526 237.318 206.126C241.418 205.226 243.318 206.526 244.218 210.426C245.918 217.726 248.218 224.926 249.418 232.226C250.718 240.326 247.918 243.626 239.718 244.226C234.118 244.726 228.518 244.226 222.918 244.026C207.618 243.326 198.418 250.726 196.518 265.926C194.918 278.626 197.818 290.626 203.918 301.726C208.218 309.726 214.918 312.626 223.918 311.126C228.518 310.326 233.118 309.226 237.618 308.226C242.918 307.226 246.718 309.426 247.618 314.526C249.218 324.426 250.218 334.326 251.618 346.026C246.118 344.126 242.718 342.926 239.218 341.826C224.618 337.126 217.818 342.226 218.218 357.726C218.418 361.926 219.318 366.126 219.118 370.326C219.018 374.526 218.718 378.826 217.318 382.626C214.818 389.426 207.718 392.426 200.518 390.626C193.918 388.926 189.418 382.826 190.418 375.726C190.918 371.926 192.118 367.926 194.018 364.626C201.218 351.826 194.818 338.726 180.018 338.526C172.818 338.426 165.118 340.526 158.518 343.526C147.318 348.726 136.918 355.526 124.918 362.326V362.326Z" fill="#006699"/>
<path fill-rule="evenodd" clip-rule="evenodd" d="M445.018 50.0259C447.518 67.3259 445.818 82.9259 433.518 95.5259C430.818 98.2259 424.818 99.8259 421.118 98.9259C409.318 96.0259 399.618 98.1259 392.218 107.726C386.118 115.726 383.718 124.626 389.018 133.926C395.218 144.726 404.718 150.326 417.418 149.826C421.118 149.726 424.818 148.826 428.518 148.226C434.118 147.326 437.618 149.526 436.718 155.326C435.118 166.426 432.918 177.426 430.518 188.326C430.218 189.626 426.618 190.726 424.518 190.826C410.518 191.526 396.418 191.026 382.518 192.526C366.018 194.326 362.718 199.726 365.518 216.226C366.318 220.826 367.618 225.426 367.818 230.026C367.918 231.726 365.818 235.026 364.418 235.126C353.318 236.326 342.418 235.226 332.618 229.426C327.918 226.626 326.518 223.326 329.118 217.726C336.418 202.326 327.218 186.226 310.218 186.826C292.618 187.326 275.018 190.526 257.518 193.326C250.918 194.426 247.618 193.626 246.118 186.626C244.018 177.526 240.718 168.726 238.518 159.626C236.818 152.326 239.518 149.026 247.018 148.426C249.718 148.226 252.618 148.426 255.318 148.826C267.218 150.826 277.018 146.526 285.618 139.026C293.518 132.026 295.118 122.726 290.818 113.526C285.918 103.426 277.418 98.3259 267.118 99.9259C262.518 100.526 257.918 101.826 253.418 103.126C248.818 104.426 246.418 102.526 246.218 98.2259C245.218 78.8259 251.418 61.8259 265.018 47.9259C266.218 46.6259 269.718 46.9259 272.018 47.4259C297.118 53.7259 320.618 64.0259 342.418 78.0259C347.418 81.1259 351.118 81.4259 356.318 78.4259C380.918 64.2259 407.318 55.3259 435.318 50.9259C438.318 50.4259 441.318 50.3259 445.018 50.0259V50.0259Z" fill="#990000"/>
<path fill-rule="evenodd" clip-rule="evenodd" d="M454.918 49.9259C538.918 40.8259 637.818 118.226 633.418 204.926C610.418 205.726 587.718 206.526 564.918 207.226C552.118 207.626 550.218 205.226 552.718 192.326C553.518 188.026 554.718 183.626 554.918 179.226C555.618 168.526 550.018 161.126 539.518 159.026C530.018 157.126 520.818 158.626 512.218 163.026C503.518 167.526 501.318 175.826 500.618 184.826C499.618 198.226 498.818 199.526 485.618 198.326C470.518 197.026 455.518 194.426 440.018 192.326C440.418 189.726 440.718 188.026 441.018 186.226C442.518 179.126 444.018 172.026 445.318 164.926C449.618 142.526 439.718 134.826 420.318 140.026C413.318 141.926 406.918 139.726 401.518 134.826C395.518 129.426 394.218 123.326 397.718 116.626C401.518 109.126 407.718 106.026 415.518 107.526C431.718 110.726 439.818 107.026 447.718 92.626C453.918 81.426 456.118 69.426 455.418 56.726C455.218 54.4593 455.051 52.1926 454.918 49.9259V49.9259Z" fill="#006699"/>
<path fill-rule="evenodd" clip-rule="evenodd" d="M255.218 43.9259C245.118 56.5259 238.918 70.026 237.218 85.226C236.618 90.726 236.518 96.5259 237.518 101.926C239.018 110.726 245.118 114.426 253.918 112.626C258.518 111.726 263.018 110.126 267.618 109.426C274.718 108.226 279.618 111.326 282.518 118.126C285.118 124.326 283.118 129.226 278.218 133.026C271.918 137.926 265.018 140.826 256.718 139.526C252.618 138.926 248.218 138.726 244.118 139.226C232.818 140.826 226.618 148.926 229.118 160.126C231.618 171.926 235.318 183.526 238.918 196.326C216.918 200.126 195.018 204.026 171.018 208.126C173.418 201.326 175.118 196.426 176.918 191.526C184.718 170.626 180.018 162.426 158.218 158.926C139.018 155.826 127.618 166.426 129.318 185.926C129.618 189.926 130.518 193.826 131.218 197.726C132.118 202.226 130.118 204.826 125.818 204.426C118.318 203.826 110.618 203.726 103.718 201.326C90.5178 196.626 77.9178 190.426 65.0178 184.926C61.0178 183.226 60.6178 180.526 61.4178 176.426C71.0178 130.526 96.8178 96.0259 135.218 69.9259C168.618 47.2259 205.218 37.326 245.518 42.226C248.418 42.626 251.318 43.2259 255.218 43.9259V43.9259Z" fill="#006699"/>
<path fill-rule="evenodd" clip-rule="evenodd" d="M379.718 524.726C377.718 512.826 376.518 502.126 373.918 491.726C370.618 478.226 363.818 474.926 350.418 478.726C347.718 479.526 345.118 480.526 342.418 481.526C334.518 484.526 331.618 483.626 328.118 475.726C321.918 461.926 324.618 448.226 329.718 434.826C331.118 431.126 334.018 430.826 337.118 432.726C340.918 435.026 344.518 437.626 348.218 440.026C358.818 446.826 368.418 445.226 372.918 433.526C376.618 424.026 378.618 413.126 378.318 402.926C377.918 388.826 374.518 374.826 372.318 359.726C378.018 358.126 384.618 355.926 391.418 354.626C405.318 352.026 418.618 345.526 433.318 347.926C436.018 348.326 438.918 348.626 441.418 349.726C448.618 352.626 449.318 355.026 445.918 361.926C440.918 372.526 443.118 386.126 451.218 394.526C458.718 402.126 471.818 404.526 481.818 400.026C491.718 395.626 497.518 384.726 496.318 372.026C495.918 367.426 494.918 362.826 494.018 358.226C492.818 351.426 495.818 347.426 502.418 346.026C504.018 345.626 505.618 345.226 507.218 345.126C528.018 343.726 548.318 345.726 568.018 353.026C570.318 353.926 572.518 355.126 576.318 356.826C566.018 368.426 557.118 379.826 546.918 389.926C506.218 430.126 461.218 465.226 415.318 499.126C403.718 507.726 391.818 516.026 379.718 524.726V524.726Z" fill="#006699"/>
<path d="M710.57 273.026L694 206.856H703.04L716.95 262.786L730.82 206.856H740.88L754.8 262.786L768.67 206.856H777.76L761.14 273.026H749.88L735.92 215.586L721.83 273.026H710.57ZM787.28 273.026V223.386H795.44V273.026H787.28ZM787.28 214.396V204.066H795.43V214.396H787.28ZM812.19 273.026V204.066H820.38V244.796L844.72 223.386H855.13L828.81 246.616L856.24 273.026H845.6L820.38 248.786V273.026H812.19ZM865.07 273.026V223.386H873.22V273.026H865.07ZM865.07 214.396V204.066H873.22V214.396H865.07ZM745.06 382.026L756.63 315.856H790.8L789.47 323.396H763.37L759.91 342.896H783.53L782.2 350.426H758.62L753.04 382.026H745.06ZM827.09 321.936C822.657 321.936 818.757 323.129 815.39 325.516C812.023 327.883 809.083 331.503 806.57 336.376C804.977 339.483 803.75 342.779 802.89 346.266C802.063 349.753 801.65 353.266 801.65 356.806C801.65 362.953 802.967 367.696 805.6 371.036C808.26 374.376 812.01 376.046 816.85 376.046C821.223 376.046 825.11 374.849 828.51 372.456C831.937 370.029 834.86 366.439 837.28 361.686C838.907 358.493 840.15 355.153 841.01 351.666C841.863 348.153 842.29 344.653 842.29 341.166C842.29 335.053 840.96 330.326 838.3 326.986C835.647 323.619 831.91 321.936 827.09 321.936V321.936ZM816.63 383.316C809.303 383.316 803.543 380.906 799.35 376.086C795.183 371.273 793.1 364.686 793.1 356.326C793.1 351.539 793.913 346.649 795.54 341.656C797.167 336.663 799.427 332.216 802.32 328.316C805.687 323.736 809.437 320.323 813.57 318.076C817.737 315.803 822.317 314.666 827.31 314.666C834.61 314.666 840.357 317.059 844.55 321.846C848.75 326.599 850.85 333.099 850.85 341.346C850.85 346.426 850.05 351.419 848.45 356.326C846.857 361.226 844.567 365.673 841.58 369.666C838.187 374.273 834.437 377.699 830.33 379.946C826.223 382.193 821.657 383.316 816.63 383.316ZM856.3 382.026L867.82 315.856H875.89L865.69 374.576H894.68L893.35 382.026H856.3ZM901.77 382.026L913.33 315.856H921.44L916.52 343.736L947.81 315.856H958.54L923.17 347.456L949.05 382.026H939.26L915.46 349.806L909.83 382.026H901.77ZM955.31 382.026L966.83 315.856H974.9L964.7 374.576H993.69L992.36 382.026H955.31ZM1033.04 321.936C1028.61 321.936 1024.71 323.129 1021.34 325.516C1017.97 327.883 1015.03 331.503 1012.52 336.376C1010.93 339.483 1009.7 342.779 1008.84 346.266C1008.01 349.753 1007.6 353.266 1007.6 356.806C1007.6 362.953 1008.92 367.696 1011.55 371.036C1014.21 374.376 1017.96 376.046 1022.8 376.046C1027.17 376.046 1031.06 374.849 1034.46 372.456C1037.89 370.029 1040.81 366.439 1043.23 361.686C1044.86 358.493 1046.1 355.153 1046.96 351.666C1047.81 348.153 1048.24 344.653 1048.24 341.166C1048.24 335.053 1046.91 330.326 1044.25 326.986C1041.6 323.619 1037.86 321.936 1033.04 321.936V321.936ZM1022.58 383.316C1015.25 383.316 1009.49 380.906 1005.3 376.086C1001.13 371.273 999.05 364.686 999.05 356.326C999.05 351.539 999.863 346.649 1001.49 341.656C1003.11 336.663 1005.37 332.216 1008.27 328.316C1011.64 323.736 1015.39 320.323 1019.52 318.076C1023.69 315.803 1028.27 314.666 1033.26 314.666C1040.56 314.666 1046.31 317.059 1050.5 321.846C1054.7 326.599 1056.8 333.099 1056.8 341.346C1056.8 346.426 1056 351.419 1054.4 356.326C1052.81 361.226 1050.52 365.673 1047.53 369.666C1044.14 374.273 1040.39 377.699 1036.28 379.946C1032.17 382.193 1027.61 383.316 1022.58 383.316ZM1090.74 323.216H1080.59L1076.56 346.706H1086.93C1090.98 346.706 1094.26 345.466 1096.77 342.986C1099.28 340.473 1100.54 337.206 1100.54 333.186C1100.54 329.966 1099.7 327.499 1098.01 325.786C1096.33 324.073 1093.91 323.216 1090.74 323.216V323.216ZM1095.4 350.246C1097.11 350.693 1098.53 351.786 1099.65 353.526C1100.78 355.273 1102.09 358.746 1103.6 363.946L1108.65 382.026H1100.14L1095.49 365.056C1094.3 360.683 1092.91 357.756 1091.32 356.276C1089.75 354.803 1087.36 354.066 1084.14 354.066H1075.23L1070.31 382.026H1062.25L1073.81 315.856H1091.98C1097.48 315.856 1101.69 317.246 1104.61 320.026C1107.57 322.773 1109.05 326.746 1109.05 331.946C1109.05 336.553 1107.79 340.543 1105.28 343.916C1102.8 347.283 1099.51 349.393 1095.4 350.246V350.246ZM1118.97 382.026L1130.54 315.856H1168.21L1166.88 323.396H1137.28L1133.82 342.986H1162.27L1160.94 350.516H1132.54L1128.37 374.496H1158.68L1157.35 382.026H1118.97Z" fill="#808080"/>
<path d="M918.91 273.026V206.856H935.97V260.126H965.93V273.026H918.91ZM999.66 233.536C996.14 233.536 993.45 234.806 991.59 237.346C989.757 239.859 988.84 243.496 988.84 248.256C988.84 253.009 989.757 256.656 991.59 259.196C993.45 261.709 996.14 262.966 999.66 262.966C1003.11 262.966 1005.76 261.709 1007.59 259.196C1009.42 256.656 1010.34 253.009 1010.34 248.256C1010.34 243.496 1009.42 239.859 1007.59 237.346C1005.76 234.806 1003.11 233.536 999.66 233.536ZM999.66 222.196C1008.19 222.196 1014.85 224.499 1019.64 229.106C1024.46 233.713 1026.87 240.096 1026.87 248.256C1026.87 256.409 1024.46 262.789 1019.64 267.396C1014.85 272.009 1008.19 274.316 999.66 274.316C991.087 274.316 984.38 272.009 979.54 267.396C974.72 262.789 972.31 256.409 972.31 248.256C972.31 240.096 974.72 233.713 979.54 229.106C984.38 224.499 991.087 222.196 999.66 222.196ZM1051.64 273.026L1032.14 223.386H1048.01L1060.37 257.696L1072.69 223.386H1088.6L1069.06 273.026H1051.64ZM1147.1 248.076V252.596H1110C1110.39 256.316 1111.73 259.109 1114.04 260.976C1116.34 262.836 1119.56 263.766 1123.7 263.766C1127.04 263.766 1130.45 263.279 1133.94 262.306C1137.45 261.299 1141.06 259.789 1144.75 257.776V270.016C1141 271.429 1137.24 272.506 1133.49 273.246C1129.74 273.959 1125.99 274.316 1122.24 274.316C1113.25 274.316 1106.26 272.039 1101.27 267.486C1096.31 262.906 1093.83 256.496 1093.83 248.256C1093.83 240.156 1096.27 233.789 1101.14 229.156C1106.05 224.516 1112.78 222.196 1121.35 222.196C1129.15 222.196 1135.38 224.543 1140.05 229.236C1144.75 233.936 1147.1 240.216 1147.1 248.076V248.076ZM1110.18 242.806H1130.79C1130.79 239.786 1129.9 237.363 1128.13 235.536C1126.39 233.676 1124.1 232.746 1121.26 232.746C1118.19 232.746 1115.69 233.616 1113.77 235.356C1111.85 237.069 1110.65 239.553 1110.18 242.806V242.806ZM1197.89 224.946V236.996C1194.49 235.576 1191.21 234.513 1188.05 233.806C1184.89 233.099 1181.91 232.746 1179.1 232.746C1176.08 232.746 1173.83 233.129 1172.36 233.896C1170.91 234.636 1170.19 235.786 1170.19 237.346C1170.19 238.619 1170.74 239.596 1171.83 240.276C1172.95 240.956 1174.94 241.459 1177.81 241.786L1180.6 242.176C1188.73 243.216 1194.19 244.916 1197 247.276C1199.81 249.643 1201.21 253.353 1201.21 258.406C1201.21 263.693 1199.26 267.666 1195.36 270.326C1191.46 272.986 1185.64 274.316 1177.9 274.316C1174.62 274.316 1171.22 274.063 1167.71 273.556C1164.22 273.023 1160.63 272.239 1156.94 271.206V259.156C1160.1 260.689 1163.33 261.843 1166.64 262.616C1169.98 263.383 1173.36 263.766 1176.79 263.766C1179.89 263.766 1182.22 263.336 1183.79 262.476C1185.36 261.623 1186.14 260.353 1186.14 258.666C1186.14 257.246 1185.59 256.196 1184.5 255.516C1183.44 254.809 1181.3 254.263 1178.08 253.876L1175.28 253.526C1168.22 252.639 1163.27 250.999 1160.44 248.606C1157.6 246.213 1156.18 242.579 1156.18 237.706C1156.18 232.446 1157.98 228.546 1161.59 226.006C1165.2 223.466 1170.72 222.196 1178.16 222.196C1181.09 222.196 1184.16 222.416 1187.38 222.856C1190.6 223.303 1194.1 223.999 1197.89 224.946V224.946Z" fill="#990000"/>
</svg>
